<?xml version="1.0" encoding="utf-8"?>
<svg enable-background="new 0 0 2048 2048" height="120px" id="Layer_1" version="1.1" viewBox="0 0 2048 2048" width="120px" x="0px" xml:space="preserve" xmlns="http://www.w3.org/2000/svg" xmlns:xlink="http://www.w3.org/1999/xlink" y="0px">
<path d=" M981.000000,2049.000000   C654.000000,2049.000000 327.500000,2049.000000 1.000000,2049.000000   C1.000000,1366.333374 1.000000,683.666687 1.000000,1.000000   C683.666687,1.000000 1366.333374,1.000000 2049.000000,1.000000   C2049.000000,683.666687 2049.000000,1366.333374 2049.000000,2049.000000   C1693.166626,2049.000000 1337.333374,2049.000000 981.000000,2049.000000  M1706.821777,1065.302368   C1699.265503,1046.110596 1691.688110,1026.927124 1684.157349,1007.725342   C1664.789795,958.341431 1645.419067,908.958679 1626.152710,859.535278   C1625.116821,856.877991 1623.744263,856.061646 1621.019897,856.074585   C1601.361084,856.168030 1581.701172,856.187378 1562.042725,856.057251   C1558.893188,856.036438 1557.224854,857.037903 1556.096436,860.002869   C1552.251831,870.103882 1548.149292,880.106262 1544.190796,890.164368   C1525.981445,936.433228 1507.768677,982.700745 1489.601074,1028.986084   C1484.928589,1040.890015 1480.416504,1052.856934 1475.322998,1065.290771   C1462.577271,1097.475830 1449.828491,1129.659790 1437.087280,1161.846680   C1432.141479,1174.340698 1427.212769,1186.841431 1422.135376,1199.696167   C1423.434814,1199.877563 1424.207275,1200.078979 1424.980103,1200.079590   C1445.976440,1200.096191 1466.973511,1200.018311 1487.968628,1200.175415   C1490.934937,1200.197754 1491.969849,1198.959839 1492.918701,1196.532227   C1501.096924,1175.610107 1509.460693,1154.760010 1517.538574,1133.799561   C1518.884155,1130.308105 1520.537231,1129.094604 1524.356567,1129.107178   C1568.848389,1129.254028 1613.341187,1129.265381 1657.832642,1129.072510   C1661.952393,1129.054688 1663.579102,1130.473755 1664.933960,1134.075562   C1672.668823,1154.637573 1680.707642,1175.085327 1688.449097,1195.644897   C1689.668091,1198.882202 1691.091675,1200.204712 1694.766235,1200.169556   C1715.092529,1199.974243 1735.421997,1200.103516 1755.750366,1200.097778   C1756.825317,1200.097412 1757.900391,1199.879150 1759.388062,1199.717285   C1758.714844,1197.757446 1758.240845,1196.197144 1757.649414,1194.682739   C1750.141235,1175.461670 1742.651245,1156.233643 1735.086548,1137.035034   C1725.753418,1113.348389 1716.354858,1089.687744 1706.821777,1065.302368  M1292.959351,1057.187744   C1292.951782,1055.854614 1292.935059,1054.521362 1292.938110,1053.188232   C1292.955933,1045.141479 1292.957397,1045.140869 1301.055542,1045.140869   C1338.219971,1045.140625 1375.384399,1045.088745 1412.548462,1045.217285   C1416.491455,1045.230957 1418.076538,1044.464722 1418.012939,1040.061157   C1417.758301,1022.399414 1417.919067,1004.731628 1417.899048,987.066101   C1417.897339,985.483704 1417.700562,983.901611 1417.576660,982.057617   C1415.165161,982.057617 1413.343018,982.057617 1411.520996,982.057556   C1374.023315,982.056396 1336.525269,981.970520 1299.028564,982.161316   C1294.337158,982.185181 1292.731201,981.141418 1292.821533,976.191833   C1293.125000,959.531677 1292.936646,942.862671 1292.936401,926.197021   C1292.936401,924.577209 1292.936279,922.957397 1292.936279,920.647827   C1334.888062,920.647827 1376.229248,920.647827 1417.913574,920.647827   C1417.913574,918.138733 1417.913330,916.321777 1417.913574,914.504761   C1417.916138,897.339172 1417.918091,880.173523 1417.921509,863.007935   C1417.922852,856.124207 1417.924438,856.120972 1411.159912,856.120605   C1351.663574,856.117310 1292.167358,856.114807 1232.671021,856.113464   C1226.208862,856.113281 1226.199219,856.117126 1226.198853,862.770081   C1226.194702,923.432983 1226.191040,984.095886 1226.200806,1044.758789   C1226.201294,1047.918823 1226.324951,1051.078979 1226.311035,1055.139893   C1226.302734,1101.160278 1226.312256,1147.180542 1226.228394,1193.200806   C1226.224609,1195.290771 1225.377686,1197.379150 1224.836182,1198.727051   C1211.575195,1174.178467 1198.298950,1149.638062 1185.057495,1125.078979   C1171.029785,1099.062012 1157.034912,1073.027100 1143.759521,1046.974365   C1147.148071,1045.591309 1150.572754,1044.289917 1153.919189,1042.811646   C1172.205933,1034.733643 1187.545044,1023.038757 1197.253540,1005.257019   C1211.788940,978.634644 1212.727661,950.425049 1203.963623,922.088074   C1194.753174,892.308350 1175.212769,871.998352 1144.660278,863.267822   C1122.979004,857.072327 1100.606812,856.902222 1078.379395,856.297852   C1054.402710,855.645935 1030.395142,856.127075 1006.401001,856.132202   C1004.780273,856.132507 1003.159485,856.286499 1001.031006,856.394836   C1001.031006,914.164612 1001.031006,971.596497 1000.929749,1029.957520   C1000.929749,1085.426392 1000.929749,1140.895142 1000.929749,1197.553223   C999.443726,1195.697754 998.788208,1194.962769 998.224426,1194.163330   C956.415344,1134.879761 914.667603,1075.552856 872.701660,1016.380737   C869.567383,1011.961365 868.132263,1008.407227 872.546570,1003.770081   C883.917542,989.662720 895.338257,975.595154 906.648743,961.439453   C928.450012,934.154175 950.193909,906.823059 971.950623,879.502258   C977.896912,872.035339 983.804199,864.537354 990.240112,856.408752   C987.747681,856.281128 986.145264,856.128479 984.542725,856.127563   C961.377441,856.114502 938.211365,856.214172 915.047546,856.031799   C911.269531,856.002014 908.833862,857.291504 906.599426,860.116760   C879.158936,894.813599 851.665894,929.468994 824.160095,964.114197   C821.562500,967.385925 818.787048,970.516479 815.100769,974.891663   C815.100769,971.343994 815.100891,969.400391 815.100830,967.456787   C815.098267,907.460266 815.065247,847.463745 815.170532,787.467407   C815.176697,783.947510 814.348999,781.711304 811.247192,779.734436   C795.531311,769.718384 779.980225,759.443970 764.348572,749.295227   C759.278381,746.003479 754.138611,742.818787 748.009216,738.938477   C748.009216,816.503052 748.009216,892.755981 747.889404,969.938782   C747.882263,1042.789551 747.872925,1115.640381 747.874878,1188.491211   C747.875000,1191.977905 747.975647,1195.464478 747.388550,1199.528931   C745.795837,1199.051270 744.177917,1198.644409 742.614075,1198.085815   C670.374390,1172.279297 598.137634,1146.464966 525.906494,1120.634644   C517.597229,1117.663208 509.322906,1114.594360 500.388123,1111.335571   C502.962402,1109.311401 504.771912,1107.867065 506.603729,1106.451416   C572.227173,1055.738037 637.856812,1005.032837 703.453552,954.285034   C705.080078,953.026733 706.345581,951.301758 708.325256,949.220581   C708.475403,947.569458 708.712952,945.921021 708.763000,944.266907   C710.101624,899.977661 711.455139,855.688782 712.733337,811.397766   C713.857910,772.429810 714.891357,733.459290 715.980835,694.490295   C716.029724,692.742737 716.235901,690.999573 716.412537,688.681335   C718.024719,689.447998 719.095337,689.795959 719.987915,690.404785   C755.887756,714.890198 791.773438,739.396301 827.656616,763.906067   C861.068542,786.727966 894.523682,809.487244 927.821594,832.474365   C931.823181,835.236877 935.322998,835.618774 939.791565,834.226013   C952.344727,830.313293 965.006653,826.749390 977.625854,823.048279   C1041.030884,804.451843 1104.434082,785.849365 1167.844116,767.270020   C1173.337769,765.660278 1178.876465,764.203613 1185.648804,762.328430   C1177.466064,790.472412 1169.660889,817.317566 1161.755493,844.507690   C1182.484985,850.377197 1198.788208,861.721741 1211.505737,878.618225   C1212.068970,868.974426 1212.248901,859.699402 1211.988770,850.436829   C1211.868652,846.151672 1213.118652,844.598389 1217.612671,844.671204   C1232.774292,844.917053 1247.944092,844.635986 1263.106812,844.843750   C1266.817383,844.894592 1268.302612,843.601074 1269.266602,840.128784   C1272.692993,827.787720 1276.465088,815.543030 1280.070435,803.251343   C1296.045044,748.789185 1312.017578,694.326477 1327.963623,639.856018   C1330.600952,630.846619 1333.102051,621.797302 1335.839844,612.154663   C1333.287231,612.790894 1331.524780,613.164612 1329.800537,613.669312   C1282.830688,627.417114 1235.869751,641.194885 1188.897217,654.933655   C1111.888672,677.457520 1034.856445,699.900818 957.898804,722.597290   C952.844666,724.087891 949.164307,723.408264 944.994446,720.545776   C891.320435,683.701294 837.586121,646.944641 783.825928,610.225830   C731.306702,574.354736 678.740906,538.551758 626.191345,502.725128   C624.344666,501.466095 622.452515,500.273712 619.849548,498.571594   C619.584595,502.040619 619.298584,504.489319 619.225037,506.944397   C618.237061,539.917053 617.258972,572.890137 616.317505,605.864136   C614.819763,658.319336 613.368225,710.775818 611.865417,763.230896   C610.562988,808.691345 609.216492,854.150635 607.221924,899.868103   C501.826019,981.305054 396.430115,1062.741943 290.407410,1144.663330   C292.740692,1145.565796 294.377869,1146.243042 296.044769,1146.836670   C306.236084,1150.466919 316.442383,1154.055054 326.628662,1157.699341   C438.930328,1197.877563 551.223755,1238.078979 663.555481,1278.172852   C666.919312,1279.373535 668.521362,1281.148315 669.517395,1284.553223   C694.924194,1371.406372 720.447266,1458.225708 745.963745,1545.046753   C746.330017,1546.292847 746.869385,1547.488037 747.327942,1548.706909   C747.953796,1484.324097 747.950439,1420.169434 747.960632,1356.014771   C747.961365,1351.349976 747.914490,1346.678223 748.137268,1342.021484   C749.629211,1310.827148 774.133484,1289.879028 805.153687,1293.212280   C820.748169,1294.887817 830.843689,1302.793457 834.874512,1317.903687   C837.087952,1326.201050 838.761414,1334.899780 838.906189,1343.447632   C839.566650,1382.427856 839.599365,1421.418701 839.855225,1460.405762   C839.867798,1462.324707 839.856873,1464.243774 839.856873,1466.285645   C855.995117,1466.285645 871.431702,1466.285645 887.313416,1466.285645   C887.313416,1464.395020 887.312317,1462.764160 887.313538,1461.133301   C887.332092,1437.303955 887.026978,1413.468506 887.478088,1389.647339   C887.805420,1372.362549 888.584778,1355.044800 890.204773,1337.839966   C891.334534,1325.841919 894.737793,1314.052490 903.842468,1305.315918   C917.733643,1291.986450 934.782898,1291.208496 952.438477,1294.642700   C964.666199,1297.021362 972.408325,1304.894165 974.555725,1316.917847   C976.770203,1329.317383 978.529236,1341.960815 978.732666,1354.525879   C979.304382,1389.844482 978.973022,1425.177734 978.997559,1460.505127   C978.998901,1462.424561 978.997742,1464.343994 978.997742,1466.167236   C995.092529,1466.167236 1010.482971,1466.167236 1026.139282,1466.167236   C1026.139282,1464.473022 1026.139282,1463.153809 1026.139282,1461.834595   C1026.138428,1417.675049 1026.197388,1373.515503 1026.085815,1329.356201   C1026.063965,1320.712402 1025.815430,1312.024902 1024.917847,1303.436279   C1022.761536,1282.800903 1011.878723,1267.978516 992.999084,1259.719360   C960.740295,1245.607178 921.753967,1253.289917 896.866882,1278.157227   C892.005920,1283.014282 887.460815,1288.187500 882.518188,1293.484741   C873.620117,1271.512085 858.241943,1258.051392 835.183167,1254.438354   C808.324219,1250.229736 783.357239,1254.372314 762.361267,1273.102051   C757.377808,1277.547729 753.121826,1282.808838 747.929932,1288.334839   C747.929932,1257.974609 747.929932,1228.409058 748.598816,1199.131348   C750.173706,1197.920776 751.807861,1196.779419 753.314392,1195.489014   C772.664856,1178.916260 791.942627,1162.257568 811.394348,1145.804688   C814.231567,1143.404907 815.269897,1140.977783 815.251831,1137.339722   C815.112976,1109.348877 815.165100,1081.357300 815.158020,1053.365845   C815.157593,1051.777222 815.157898,1050.188599 815.157898,1047.389038   C816.776550,1049.450073 817.695862,1050.518555 818.504456,1051.665039   C852.472778,1099.823364 886.463501,1147.965820 920.312500,1196.208008   C922.399780,1199.182861 924.538269,1200.178223 928.058838,1200.169312   C972.543274,1200.057373 1017.028198,1200.093140 1061.512939,1200.091064   C1063.278809,1200.090942 1065.044556,1200.091064 1067.205444,1200.091064   C1067.205444,1151.435791 1067.205444,1103.341675 1067.205444,1055.416870   C1072.761353,1053.064331 1074.908813,1056.104614 1077.090210,1060.160522   C1101.446533,1105.444946 1125.952637,1150.648804 1150.307495,1195.934082   C1151.916748,1198.926392 1153.598877,1200.224487 1157.177979,1200.192139   C1178.169312,1200.002319 1199.163330,1200.125488 1220.156372,1200.085693   C1221.752686,1200.082642 1223.348389,1199.634033 1225.906372,1199.473267   C1228.040527,1199.686768 1230.174683,1200.085815 1232.308960,1200.086792   C1292.414062,1200.115723 1352.519043,1200.106323 1412.624146,1200.089966   C1414.229370,1200.089600 1415.834595,1199.942627 1417.564941,1199.857910   C1417.564941,1178.406494 1417.564941,1157.353149 1417.564941,1135.649902   C1375.932983,1135.649902 1334.596436,1135.649902 1292.848511,1135.649902   C1292.848511,1109.372925 1292.848511,1083.745972 1292.959351,1057.187744  M1758.831055,1466.395508   C1759.163208,1465.357544 1759.790527,1464.318115 1759.785156,1463.281860   C1759.528564,1413.458130 1759.680542,1363.625732 1758.731323,1313.814453   C1758.198364,1285.844116 1741.985229,1265.670898 1715.788818,1257.597900   C1702.574951,1253.525879 1689.006836,1253.013916 1675.253784,1253.829956   C1648.075684,1255.442627 1625.856689,1266.198486 1609.508667,1288.312744   C1608.391357,1289.824219 1607.207031,1291.286255 1606.053955,1292.771484   C1605.702637,1292.635376 1605.351196,1292.499268 1604.999756,1292.363159   C1604.999756,1248.684326 1604.999756,1205.005493 1604.999756,1161.356934   C1589.993042,1161.356934 1575.576538,1161.356934 1561.038818,1161.356934   C1561.038818,1263.111938 1561.038818,1364.550415 1561.038818,1466.283936   C1576.684692,1466.283936 1592.103027,1466.283936 1607.986450,1466.283936   C1607.986450,1464.212524 1607.986572,1462.416138 1607.986694,1460.619751   C1607.987671,1433.787476 1607.877930,1406.954468 1608.039062,1380.123047   C1608.113037,1367.801025 1608.435913,1355.465820 1609.153564,1343.166138   C1610.056763,1327.684937 1615.579468,1314.295776 1628.696655,1305.006592   C1645.912598,1292.814941 1665.000732,1290.947021 1684.953735,1295.702148   C1696.557495,1298.467651 1704.472534,1305.887817 1707.067017,1317.681519   C1709.165405,1327.220459 1711.322998,1336.978882 1711.479492,1346.671875   C1712.089600,1384.494141 1711.914551,1422.329224 1712.030029,1460.159546   C1712.036011,1462.110718 1712.030762,1464.061890 1712.030762,1466.519165   C1727.679688,1466.519165 1742.807983,1466.519165 1758.831055,1466.395508  M1128.382568,1429.359985   C1100.535278,1422.383179 1087.036865,1391.901245 1088.721191,1370.161865   C1143.096558,1370.161865 1197.504395,1370.161865 1253.453369,1370.161865   C1251.900513,1355.951416 1251.492065,1342.069702 1248.697876,1328.686035   C1242.241577,1297.761963 1224.979980,1274.737305 1195.321899,1262.278198   C1173.918091,1253.286377 1151.494263,1251.704468 1128.666138,1254.813232   C1095.819824,1259.286133 1070.951904,1276.147217 1054.106201,1304.408081   C1037.461914,1332.331421 1035.646729,1362.733154 1041.955566,1393.796143   C1048.928223,1428.128174 1068.399536,1453.000854 1100.980225,1466.599854   C1120.437500,1474.721069 1141.029907,1476.171021 1161.865479,1474.059326   C1202.134644,1469.978271 1230.502197,1448.502441 1250.041260,1413.357422   C1236.845093,1405.979004 1223.840820,1398.707886 1210.580200,1391.293579   C1208.875122,1394.091797 1207.452515,1396.515015 1205.945190,1398.884155   C1199.614258,1408.835083 1192.109863,1417.696411 1181.542358,1423.348877   C1164.938843,1432.229980 1147.301880,1433.266846 1128.382568,1429.359985  M1528.457764,1303.884644   C1534.888550,1308.433960 1541.319336,1312.983154 1547.809692,1317.574585   C1547.852051,1317.413330 1548.062622,1316.985352 1548.063232,1316.557007   C1548.086914,1300.729004 1548.187744,1284.899536 1547.942993,1269.075439   C1547.919434,1267.547607 1546.056152,1265.412964 1544.507446,1264.638672   C1518.769653,1251.768677 1491.597168,1250.844116 1464.087524,1256.387451   C1430.598877,1263.135498 1405.402832,1281.627319 1390.108521,1312.474854   C1378.934326,1335.012207 1377.250977,1359.139526 1380.451294,1383.678711   C1383.136597,1404.270142 1391.016602,1422.775635 1404.714355,1438.570190   C1422.166382,1458.693726 1444.227417,1470.216919 1470.614014,1473.570190   C1496.344971,1476.839966 1521.071655,1473.802856 1544.525513,1462.165161   C1547.350098,1460.763916 1548.216309,1459.114258 1548.173096,1456.056396   C1547.996460,1443.562744 1548.097412,1431.065186 1548.096313,1418.569092   C1548.096069,1414.845947 1548.096313,1411.122803 1548.096313,1406.486694   C1546.796021,1407.679565 1546.291504,1408.050049 1545.899292,1408.515381   C1533.085327,1423.723022 1516.452881,1430.615234 1496.858398,1431.641602   C1466.310669,1433.241699 1441.739136,1418.439331 1432.648193,1391.943237   C1426.247192,1373.286621 1425.953857,1354.184204 1432.368408,1335.541138   C1439.403564,1315.093262 1453.528564,1301.476929 1474.995117,1296.679199   C1493.319824,1292.583740 1511.037964,1294.768433 1528.457764,1303.884644  M1313.154907,1372.598999   C1313.238525,1369.100220 1313.205811,1365.594238 1313.426270,1362.104126   C1314.308472,1348.140381 1315.291626,1334.209351 1319.947876,1320.811768   C1326.401611,1302.242065 1341.152710,1292.666748 1360.759399,1294.343018   C1369.680298,1295.105713 1378.005615,1297.464478 1385.922729,1302.742676   C1391.636841,1289.258179 1397.189331,1276.155396 1402.850220,1262.796631   C1391.693237,1257.364868 1380.463745,1254.267456 1368.507690,1253.582275   C1347.325317,1252.368286 1330.833862,1260.037476 1320.063721,1278.734741   C1317.812622,1282.642822 1315.838257,1286.710327 1313.736450,1290.704346   C1313.441650,1290.626831 1313.146729,1290.549438 1312.851807,1290.471924   C1312.851807,1280.423706 1312.851807,1270.375488 1312.851807,1260.348755   C1296.985474,1260.348755 1281.594482,1260.348755 1266.138428,1260.348755   C1266.138428,1329.167114 1266.138428,1397.598999 1266.138428,1466.270264   C1281.825073,1466.270264 1297.245117,1466.270264 1313.123535,1466.270264   C1313.123535,1435.179199 1313.123535,1404.377197 1313.154907,1372.598999  z" fill="none" opacity="1.000000"/>
<path d=" M607.889526,899.610352   C609.216492,854.150635 610.562988,808.691345 611.865417,763.230896   C613.368225,710.775818 614.819763,658.319336 616.317505,605.864136   C617.258972,572.890137 618.237061,539.917053 619.225037,506.944397   C619.298584,504.489319 619.584595,502.040619 619.849548,498.571594   C622.452515,500.273712 624.344666,501.466095 626.191345,502.725128   C678.740906,538.551758 731.306702,574.354736 783.825928,610.225830   C837.586121,646.944641 891.320435,683.701294 944.994446,720.545776   C949.164307,723.408264 952.844666,724.087891 957.898804,722.597290   C1034.856445,699.900818 1111.888672,677.457520 1188.897217,654.933655   C1235.869751,641.194885 1282.830688,627.417114 1329.800537,613.669312   C1331.524780,613.164612 1333.287231,612.790894 1335.839844,612.154663   C1333.102051,621.797302 1330.600952,630.846619 1327.963623,639.856018   C1312.017578,694.326477 1296.045044,748.789185 1280.070435,803.251343   C1276.465088,815.543030 1272.692993,827.787720 1269.266602,840.128784   C1268.302612,843.601074 1266.817383,844.894592 1263.106812,844.843750   C1247.944092,844.635986 1232.774292,844.917053 1217.612671,844.671204   C1213.118652,844.598389 1211.868652,846.151672 1211.988770,850.436829   C1212.248901,859.699402 1212.068970,868.974426 1211.505737,878.618225   C1198.788208,861.721741 1182.484985,850.377197 1161.755493,844.507690   C1169.660889,817.317566 1177.466064,790.472412 1185.648804,762.328430   C1178.876465,764.203613 1173.337769,765.660278 1167.844116,767.270020   C1104.434082,785.849365 1041.030884,804.451843 977.625854,823.048279   C965.006653,826.749390 952.344727,830.313293 939.791565,834.226013   C935.322998,835.618774 931.823181,835.236877 927.821594,832.474365   C894.523682,809.487244 861.068542,786.727966 827.656616,763.906067   C791.773438,739.396301 755.887756,714.890198 719.987915,690.404785   C719.095337,689.795959 718.024719,689.447998 716.412537,688.681335   C716.235901,690.999573 716.029724,692.742737 715.980835,694.490295   C714.891357,733.459290 713.857910,772.429810 712.733337,811.397766   C711.455139,855.688782 710.101624,899.977661 708.763000,944.266907   C708.712952,945.921021 708.475403,947.569458 707.720459,949.447632   C694.202026,943.204895 681.271423,936.768494 668.378540,930.257507   C648.202148,920.068298 628.051208,909.828613 607.889526,899.610352  z" fill="#06BEAE" opacity="1.000000"/>
<path d=" M607.555664,899.739258   C628.051208,909.828613 648.202148,920.068298 668.378540,930.257507   C681.271423,936.768494 694.202026,943.204895 707.447571,949.734619   C706.345581,951.301758 705.080078,953.026733 703.453552,954.285034   C637.856812,1005.032837 572.227173,1055.738037 506.603729,1106.451416   C504.771912,1107.867065 502.962402,1109.311401 500.388123,1111.335571   C509.322906,1114.594360 517.597229,1117.663208 525.906494,1120.634644   C598.137634,1146.464966 670.374390,1172.279297 742.614075,1198.085815   C744.177917,1198.644409 745.795837,1199.051270 747.692261,1199.206787   C747.996033,1198.884644 747.929932,1198.843628 747.929932,1198.843628   C747.929932,1228.409058 747.929932,1257.974609 747.929932,1288.334839   C753.121826,1282.808838 757.377808,1277.547729 762.361267,1273.102051   C783.357239,1254.372314 808.324219,1250.229736 835.183167,1254.438354   C858.241943,1258.051392 873.620117,1271.512085 882.518188,1293.484741   C887.460815,1288.187500 892.005920,1283.014282 896.866882,1278.157227   C921.753967,1253.289917 960.740295,1245.607178 992.999084,1259.719360   C1011.878723,1267.978516 1022.761536,1282.800903 1024.917847,1303.436279   C1025.815430,1312.024902 1026.063965,1320.712402 1026.085815,1329.356201   C1026.197388,1373.515503 1026.138428,1417.675049 1026.139282,1461.834595   C1026.139282,1463.153809 1026.139282,1464.473022 1026.139282,1466.167236   C1010.482971,1466.167236 995.092529,1466.167236 978.997742,1466.167236   C978.997742,1464.343994 978.998901,1462.424561 978.997559,1460.505127   C978.973022,1425.177734 979.304382,1389.844482 978.732666,1354.525879   C978.529236,1341.960815 976.770203,1329.317383 974.555725,1316.917847   C972.408325,1304.894165 964.666199,1297.021362 952.438477,1294.642700   C934.782898,1291.208496 917.733643,1291.986450 903.842468,1305.315918   C894.737793,1314.052490 891.334534,1325.841919 890.204773,1337.839966   C888.584778,1355.044800 887.805420,1372.362549 887.478088,1389.647339   C887.026978,1413.468506 887.332092,1437.303955 887.313538,1461.133301   C887.312317,1462.764160 887.313416,1464.395020 887.313416,1466.285645   C871.431702,1466.285645 855.995117,1466.285645 839.856873,1466.285645   C839.856873,1464.243774 839.867798,1462.324707 839.855225,1460.405762   C839.599365,1421.418701 839.566650,1382.427856 838.906189,1343.447632   C838.761414,1334.899780 837.087952,1326.201050 834.874512,1317.903687   C830.843689,1302.793457 820.748169,1294.887817 805.153687,1293.212280   C774.133484,1289.879028 749.629211,1310.827148 748.137268,1342.021484   C747.914490,1346.678223 747.961365,1351.349976 747.960632,1356.014771   C747.950439,1420.169434 747.953796,1484.324097 747.327942,1548.706909   C746.869385,1547.488037 746.330017,1546.292847 745.963745,1545.046753   C720.447266,1458.225708 694.924194,1371.406372 669.517395,1284.553223   C668.521362,1281.148315 666.919312,1279.373535 663.555481,1278.172852   C551.223755,1238.078979 438.930328,1197.877563 326.628662,1157.699341   C316.442383,1154.055054 306.236084,1150.466919 296.044769,1146.836670   C294.377869,1146.243042 292.740692,1145.565796 290.407410,1144.663330   C396.430115,1062.741943 501.826019,981.305054 607.555664,899.739258  z" fill="#044A59" opacity="1.000000"/>
<path d=" M1143.025757,1047.000000   C1157.034912,1073.027100 1171.029785,1099.062012 1185.057495,1125.078979   C1198.298950,1149.638062 1211.575195,1174.178467 1224.894775,1199.080811   C1224.953247,1199.434570 1224.944336,1199.392578 1224.944336,1199.392578   C1223.348389,1199.634033 1221.752686,1200.082642 1220.156372,1200.085693   C1199.163330,1200.125488 1178.169312,1200.002319 1157.177979,1200.192139   C1153.598877,1200.224487 1151.916748,1198.926392 1150.307495,1195.934082   C1125.952637,1150.648804 1101.446533,1105.444946 1077.090210,1060.160522   C1074.908813,1056.104614 1072.761353,1053.064331 1067.205444,1055.416870   C1067.205444,1103.341675 1067.205444,1151.435791 1067.205444,1200.091064   C1065.044556,1200.091064 1063.278809,1200.090942 1061.512939,1200.091064   C1017.028198,1200.093140 972.543274,1200.057373 928.058838,1200.169312   C924.538269,1200.178223 922.399780,1199.182861 920.312500,1196.208008   C886.463501,1147.965820 852.472778,1099.823364 818.504456,1051.665039   C817.695862,1050.518555 816.776550,1049.450073 815.157898,1047.389038   C815.157898,1050.188599 815.157593,1051.777222 815.158020,1053.365845   C815.165100,1081.357300 815.112976,1109.348877 815.251831,1137.339722   C815.269897,1140.977783 814.231567,1143.404907 811.394348,1145.804688   C791.942627,1162.257568 772.664856,1178.916260 753.314392,1195.489014   C751.807861,1196.779419 750.173706,1197.920776 748.264404,1198.987549   C747.929932,1198.843628 747.996033,1198.884644 748.012695,1198.917969   C747.975647,1195.464478 747.875000,1191.977905 747.874878,1188.491211   C747.872925,1115.640381 747.882263,1042.789551 748.338623,969.460754   C767.924255,975.169800 786.900574,981.923218 806.239746,987.393555   C827.957336,993.536621 850.002808,998.520691 871.905640,1004.009033   C868.132263,1008.407227 869.567383,1011.961365 872.701660,1016.380737   C914.667603,1075.552856 956.415344,1134.879761 998.224426,1194.163330   C998.788208,1194.962769 999.443726,1195.697754 1000.929749,1197.553223   C1000.929749,1140.895142 1000.929749,1085.426392 1001.405579,1029.446533   C1003.194153,1029.099976 1004.510925,1029.238037 1005.819092,1029.433228   C1018.123169,1031.269043 1030.406006,1033.260986 1042.733521,1034.922119   C1060.164429,1037.270874 1077.617676,1039.461914 1095.080322,1041.562744   C1111.049072,1043.484009 1127.042969,1045.195923 1143.025757,1047.000000  z" fill="#5D5662" opacity="1.000000"/>
<path d=" M1143.392578,1046.987183   C1127.042969,1045.195923 1111.049072,1043.484009 1095.080322,1041.562744   C1077.617676,1039.461914 1060.164429,1037.270874 1042.733521,1034.922119   C1030.406006,1033.260986 1018.123169,1031.269043 1005.819092,1029.433228   C1004.510925,1029.238037 1003.194153,1029.099976 1001.456177,1028.981934   C1001.031006,971.596497 1001.031006,914.164612 1001.031006,856.394836   C1003.159485,856.286499 1004.780273,856.132507 1006.401001,856.132202   C1030.395142,856.127075 1054.402710,855.645935 1078.379395,856.297852   C1100.606812,856.902222 1122.979004,857.072327 1144.660278,863.267822   C1175.212769,871.998352 1194.753174,892.308350 1203.963623,922.088074   C1212.727661,950.425049 1211.788940,978.634644 1197.253540,1005.257019   C1187.545044,1023.038757 1172.205933,1034.733643 1153.919189,1042.811646   C1150.572754,1044.289917 1147.148071,1045.591309 1143.392578,1046.987183  M1135.043091,931.456116   C1129.884888,928.603027 1124.996704,924.923401 1119.493896,923.124634   C1113.752075,921.247742 1107.436523,920.656921 1101.338623,920.440186   C1090.099121,920.040649 1078.835327,920.326111 1067.402100,920.326111   C1067.402100,943.936829 1067.402100,967.155823 1067.402100,990.799744   C1084.488770,990.993896 1101.315552,991.715210 1117.783813,987.992676   C1123.770142,986.639526 1129.858032,983.975952 1134.876953,980.453369   C1146.885010,972.025452 1149.197266,944.318970 1135.043091,931.456116  z" fill="#AAABB0" opacity="1.000000"/>
<path d=" M1226.391357,1054.239014   C1226.324951,1051.078979 1226.201294,1047.918823 1226.200806,1044.758789   C1226.191040,984.095886 1226.194702,923.432983 1226.198853,862.770081   C1226.199219,856.117126 1226.208862,856.113281 1232.671021,856.113464   C1292.167358,856.114807 1351.663574,856.117310 1411.159912,856.120605   C1417.924438,856.120972 1417.922852,856.124207 1417.921509,863.007935   C1417.918091,880.173523 1417.916138,897.339172 1417.913574,914.504761   C1417.913330,916.321777 1417.913574,918.138733 1417.913574,920.647827   C1376.229248,920.647827 1334.888062,920.647827 1292.936279,920.647827   C1292.936279,922.957397 1292.936401,924.577209 1292.936401,926.197021   C1292.936646,942.862671 1293.125000,959.531677 1292.821533,976.191833   C1292.731201,981.141418 1294.337158,982.185181 1299.028564,982.161316   C1336.525269,981.970520 1374.023315,982.056396 1411.520996,982.057556   C1413.343018,982.057617 1415.165161,982.057617 1417.576660,982.057617   C1417.700562,983.901611 1417.897339,985.483704 1417.899048,987.066101   C1417.919067,1004.731628 1417.758301,1022.399414 1418.012939,1040.061157   C1418.076538,1044.464722 1416.491455,1045.230957 1412.548462,1045.217285   C1375.384399,1045.088745 1338.219971,1045.140625 1301.055542,1045.140869   C1292.957397,1045.140869 1292.955933,1045.141479 1292.938110,1053.188232   C1292.935059,1054.521362 1292.951782,1055.854614 1292.467407,1057.611816   C1278.064697,1057.054321 1264.159790,1055.978760 1250.241089,1055.127686   C1242.302734,1054.642456 1234.342041,1054.523071 1226.391357,1054.239014  z" fill="#ABABB0" opacity="1.000000"/>
<path d=" M1758.383789,1466.457275   C1742.807983,1466.519165 1727.679688,1466.519165 1712.030762,1466.519165   C1712.030762,1464.061890 1712.036011,1462.110718 1712.030029,1460.159546   C1711.914551,1422.329224 1712.089600,1384.494141 1711.479492,1346.671875   C1711.322998,1336.978882 1709.165405,1327.220459 1707.067017,1317.681519   C1704.472534,1305.887817 1696.557495,1298.467651 1684.953735,1295.702148   C1665.000732,1290.947021 1645.912598,1292.814941 1628.696655,1305.006592   C1615.579468,1314.295776 1610.056763,1327.684937 1609.153564,1343.166138   C1608.435913,1355.465820 1608.113037,1367.801025 1608.039062,1380.123047   C1607.877930,1406.954468 1607.987671,1433.787476 1607.986694,1460.619751   C1607.986572,1462.416138 1607.986450,1464.212524 1607.986450,1466.283936   C1592.103027,1466.283936 1576.684692,1466.283936 1561.038818,1466.283936   C1561.038818,1364.550415 1561.038818,1263.111938 1561.038818,1161.356934   C1575.576538,1161.356934 1589.993042,1161.356934 1604.999756,1161.356934   C1604.999756,1205.005493 1604.999756,1248.684326 1604.999756,1292.363159   C1605.351196,1292.499268 1605.702637,1292.635376 1606.053955,1292.771484   C1607.207031,1291.286255 1608.391357,1289.824219 1609.508667,1288.312744   C1625.856689,1266.198486 1648.075684,1255.442627 1675.253784,1253.829956   C1689.006836,1253.013916 1702.574951,1253.525879 1715.788818,1257.597900   C1741.985229,1265.670898 1758.198364,1285.844116 1758.731323,1313.814453   C1759.680542,1363.625732 1759.528564,1413.458130 1759.785156,1463.281860   C1759.790527,1464.318115 1759.163208,1465.357544 1758.383789,1466.457275  z" fill="#064A59" opacity="1.000000"/>
<path d=" M1128.765503,1429.512939   C1147.301880,1433.266846 1164.938843,1432.229980 1181.542358,1423.348877   C1192.109863,1417.696411 1199.614258,1408.835083 1205.945190,1398.884155   C1207.452515,1396.515015 1208.875122,1394.091797 1210.580200,1391.293579   C1223.840820,1398.707886 1236.845093,1405.979004 1250.041260,1413.357422   C1230.502197,1448.502441 1202.134644,1469.978271 1161.865479,1474.059326   C1141.029907,1476.171021 1120.437500,1474.721069 1100.980225,1466.599854   C1068.399536,1453.000854 1048.928223,1428.128174 1041.955566,1393.796143   C1035.646729,1362.733154 1037.461914,1332.331421 1054.106201,1304.408081   C1070.951904,1276.147217 1095.819824,1259.286133 1128.666138,1254.813232   C1151.494263,1251.704468 1173.918091,1253.286377 1195.321899,1262.278198   C1224.979980,1274.737305 1242.241577,1297.761963 1248.697876,1328.686035   C1251.492065,1342.069702 1251.900513,1355.951416 1253.453369,1370.161865   C1197.504395,1370.161865 1143.096558,1370.161865 1088.721191,1370.161865   C1087.036865,1391.901245 1100.535278,1422.383179 1128.765503,1429.512939  M1091.851562,1335.349609   C1091.655151,1336.391724 1091.458862,1337.433838 1091.260620,1338.485840   C1128.688843,1338.485840 1165.734741,1338.485840 1203.218628,1338.485840   C1200.904663,1324.074951 1196.179321,1311.619507 1183.720337,1303.154907   C1171.853760,1295.092896 1158.588379,1293.119629 1144.755493,1293.543457   C1134.707031,1293.851318 1124.999390,1295.804443 1116.149658,1300.999268   C1103.134521,1308.639038 1096.339233,1320.694458 1091.851562,1335.349609  z" fill="#054A59" opacity="1.000000"/>
<path d=" M1706.984497,1066.015869   C1716.354858,1089.687744 1725.753418,1113.348389 1735.086548,1137.035034   C1742.651245,1156.233643 1750.141235,1175.461670 1757.649414,1194.682739   C1758.240845,1196.197144 1758.714844,1197.757446 1759.388062,1199.717285   C1757.900391,1199.879150 1756.825317,1200.097412 1755.750366,1200.097778   C1735.421997,1200.103516 1715.092529,1199.974243 1694.766235,1200.169556   C1691.091675,1200.204712 1689.668091,1198.882202 1688.449097,1195.644897   C1680.707642,1175.085327 1672.668823,1154.637573 1664.933960,1134.075562   C1663.579102,1130.473755 1661.952393,1129.054688 1657.832642,1129.072510   C1613.341187,1129.265381 1568.848389,1129.254028 1524.356567,1129.107178   C1520.537231,1129.094604 1518.884155,1130.308105 1517.538574,1133.799561   C1509.460693,1154.760010 1501.096924,1175.610107 1492.918701,1196.532227   C1491.969849,1198.959839 1490.934937,1200.197754 1487.968628,1200.175415   C1466.973511,1200.018311 1445.976440,1200.096191 1424.980103,1200.079590   C1424.207275,1200.078979 1423.434814,1199.877563 1422.135376,1199.696167   C1427.212769,1186.841431 1432.141479,1174.340698 1437.087280,1161.846680   C1449.828491,1129.659790 1462.577271,1097.475830 1476.054810,1065.101562   C1499.553223,1065.239624 1522.319824,1065.566895 1545.548828,1065.910156   C1576.627808,1065.891479 1607.244507,1065.856689 1638.330322,1065.914917   C1661.527954,1066.010498 1684.256226,1066.013184 1706.984497,1066.015869  z" fill="#5D5662" opacity="1.000000"/>
<path d=" M872.226074,1003.889526   C850.002808,998.520691 827.957336,993.536621 806.239746,987.393555   C786.900574,981.923218 767.924255,975.169800 748.398560,968.995850   C748.009216,892.755981 748.009216,816.503052 748.009216,738.938477   C754.138611,742.818787 759.278381,746.003479 764.348572,749.295227   C779.980225,759.443970 795.531311,769.718384 811.247192,779.734436   C814.348999,781.711304 815.176697,783.947510 815.170532,787.467407   C815.065247,847.463745 815.098267,907.460266 815.100830,967.456787   C815.100891,969.400391 815.100769,971.343994 815.100769,974.891663   C818.787048,970.516479 821.562500,967.385925 824.160095,964.114197   C851.665894,929.468994 879.158936,894.813599 906.599426,860.116760   C908.833862,857.291504 911.269531,856.002014 915.047546,856.031799   C938.211365,856.214172 961.377441,856.114502 984.542725,856.127563   C986.145264,856.128479 987.747681,856.281128 990.240112,856.408752   C983.804199,864.537354 977.896912,872.035339 971.950623,879.502258   C950.193909,906.823059 928.450012,934.154175 906.648743,961.439453   C895.338257,975.595154 883.917542,989.662720 872.226074,1003.889526  z" fill="#AAABB0" opacity="1.000000"/>
<path d=" M1706.903076,1065.659180   C1684.256226,1066.013184 1661.527954,1066.010498 1638.341675,1065.547119   C1637.678833,1064.294067 1637.556030,1063.469238 1637.257324,1062.713745   C1626.021851,1034.289551 1614.801147,1005.859253 1603.503418,977.459717   C1599.679443,967.847534 1595.654663,958.315247 1591.390015,947.939941   C1590.315308,950.457397 1589.577393,952.104858 1588.902832,953.777893   C1575.855469,986.132202 1562.766235,1018.469788 1549.826782,1050.867188   C1547.884033,1055.731323 1546.648926,1060.878174 1545.086426,1065.894165   C1522.319824,1065.566895 1499.553223,1065.239624 1476.308594,1064.853638   C1480.416504,1052.856934 1484.928589,1040.890015 1489.601074,1028.986084   C1507.768677,982.700745 1525.981445,936.433228 1544.190796,890.164368   C1548.149292,880.106262 1552.251831,870.103882 1556.096436,860.002869   C1557.224854,857.037903 1558.893188,856.036438 1562.042725,856.057251   C1581.701172,856.187378 1601.361084,856.168030 1621.019897,856.074585   C1623.744263,856.061646 1625.116821,856.877991 1626.152710,859.535278   C1645.419067,908.958679 1664.789795,958.341431 1684.157349,1007.725342   C1691.688110,1026.927124 1699.265503,1046.110596 1706.903076,1065.659180  z" fill="#AAABB0" opacity="1.000000"/>
<path d=" M1528.123779,1303.720947   C1511.037964,1294.768433 1493.319824,1292.583740 1474.995117,1296.679199   C1453.528564,1301.476929 1439.403564,1315.093262 1432.368408,1335.541138   C1425.953857,1354.184204 1426.247192,1373.286621 1432.648193,1391.943237   C1441.739136,1418.439331 1466.310669,1433.241699 1496.858398,1431.641602   C1516.452881,1430.615234 1533.085327,1423.723022 1545.899292,1408.515381   C1546.291504,1408.050049 1546.796021,1407.679565 1548.096313,1406.486694   C1548.096313,1411.122803 1548.096069,1414.845947 1548.096313,1418.569092   C1548.097412,1431.065186 1547.996460,1443.562744 1548.173096,1456.056396   C1548.216309,1459.114258 1547.350098,1460.763916 1544.525513,1462.165161   C1521.071655,1473.802856 1496.344971,1476.839966 1470.614014,1473.570190   C1444.227417,1470.216919 1422.166382,1458.693726 1404.714355,1438.570190   C1391.016602,1422.775635 1383.136597,1404.270142 1380.451294,1383.678711   C1377.250977,1359.139526 1378.934326,1335.012207 1390.108521,1312.474854   C1405.402832,1281.627319 1430.598877,1263.135498 1464.087524,1256.387451   C1491.597168,1250.844116 1518.769653,1251.768677 1544.507446,1264.638672   C1546.056152,1265.412964 1547.919434,1267.547607 1547.942993,1269.075439   C1548.187744,1284.899536 1548.086914,1300.729004 1548.063232,1316.557007   C1548.062622,1316.985352 1547.852051,1317.413330 1547.809692,1317.574585   C1541.319336,1312.983154 1534.888550,1308.433960 1528.123779,1303.720947  z" fill="#064A59" opacity="1.000000"/>
<path d=" M1226.351196,1054.689453   C1234.342041,1054.523071 1242.302734,1054.642456 1250.241089,1055.127686   C1264.159790,1055.978760 1278.064697,1057.054321 1292.411987,1058.077515   C1292.848511,1083.745972 1292.848511,1109.372925 1292.848511,1135.649902   C1334.596436,1135.649902 1375.932983,1135.649902 1417.564941,1135.649902   C1417.564941,1157.353149 1417.564941,1178.406494 1417.564941,1199.857910   C1415.834595,1199.942627 1414.229370,1200.089600 1412.624146,1200.089966   C1352.519043,1200.106323 1292.414062,1200.115723 1232.308960,1200.086792   C1230.174683,1200.085815 1228.040527,1199.686768 1225.425293,1199.432861   C1224.944336,1199.392578 1224.953247,1199.434570 1224.938477,1199.451416   C1225.377686,1197.379150 1226.224609,1195.290771 1226.228394,1193.200806   C1226.312256,1147.180542 1226.302734,1101.160278 1226.351196,1054.689453  z" fill="#5D5562" opacity="1.000000"/>
<path d=" M1313.139160,1373.087036   C1313.123535,1404.377197 1313.123535,1435.179199 1313.123535,1466.270264   C1297.245117,1466.270264 1281.825073,1466.270264 1266.138428,1466.270264   C1266.138428,1397.598999 1266.138428,1329.167114 1266.138428,1260.348755   C1281.594482,1260.348755 1296.985474,1260.348755 1312.851807,1260.348755   C1312.851807,1270.375488 1312.851807,1280.423706 1312.851807,1290.471924   C1313.146729,1290.549438 1313.441650,1290.626831 1313.736450,1290.704346   C1315.838257,1286.710327 1317.812622,1282.642822 1320.063721,1278.734741   C1330.833862,1260.037476 1347.325317,1252.368286 1368.507690,1253.582275   C1380.463745,1254.267456 1391.693237,1257.364868 1402.850220,1262.796631   C1397.189331,1276.155396 1391.636841,1289.258179 1385.922729,1302.742676   C1378.005615,1297.464478 1369.680298,1295.105713 1360.759399,1294.343018   C1341.152710,1292.666748 1326.401611,1302.242065 1319.947876,1320.811768   C1315.291626,1334.209351 1314.308472,1348.140381 1313.426270,1362.104126   C1313.205811,1365.594238 1313.238525,1369.100220 1313.139160,1373.087036  z" fill="#064A59" opacity="1.000000"/>
<path d=" M1135.298828,931.708679   C1149.197266,944.318970 1146.885010,972.025452 1134.876953,980.453369   C1129.858032,983.975952 1123.770142,986.639526 1117.783813,987.992676   C1101.315552,991.715210 1084.488770,990.993896 1067.402100,990.799744   C1067.402100,967.155823 1067.402100,943.936829 1067.402100,920.326111   C1078.835327,920.326111 1090.099121,920.040649 1101.338623,920.440186   C1107.436523,920.656921 1113.752075,921.247742 1119.493896,923.124634   C1124.996704,924.923401 1129.884888,928.603027 1135.298828,931.708679  z" fill="#FDFDFD" opacity="1.000000"/>
<path d=" M1091.941528,1334.956299   C1096.339233,1320.694458 1103.134521,1308.639038 1116.149658,1300.999268   C1124.999390,1295.804443 1134.707031,1293.851318 1144.755493,1293.543457   C1158.588379,1293.119629 1171.853760,1295.092896 1183.720337,1303.154907   C1196.179321,1311.619507 1200.904663,1324.074951 1203.218628,1338.485840   C1165.734741,1338.485840 1128.688843,1338.485840 1091.260620,1338.485840   C1091.458862,1337.433838 1091.655151,1336.391724 1091.941528,1334.956299  z" fill="#F8FBFB" opacity="1.000000"/>
<path d=" M1545.548828,1065.910156   C1546.648926,1060.878174 1547.884033,1055.731323 1549.826782,1050.867188   C1562.766235,1018.469788 1575.855469,986.132202 1588.902832,953.777893   C1589.577393,952.104858 1590.315308,950.457397 1591.390015,947.939941   C1595.654663,958.315247 1599.679443,967.847534 1603.503418,977.459717   C1614.801147,1005.859253 1626.021851,1034.289551 1637.257324,1062.713745   C1637.556030,1063.469238 1637.678833,1064.294067 1637.872314,1065.454346   C1607.244507,1065.856689 1576.627808,1065.891479 1545.548828,1065.910156  z" fill="#FDFDFD" opacity="1.000000"/>
</svg>